<mxfile host="65bd71144e">
    <diagram id="XbrPzbIC0S2u9vnNkEtJ" name="Page-1">
        <mxGraphModel dx="1403" dy="825" grid="1" gridSize="10" guides="1" tooltips="1" connect="1" arrows="1" fold="1" page="1" pageScale="1" pageWidth="850" pageHeight="1100" math="0" shadow="0">
            <root>
                <mxCell id="0"/>
                <mxCell id="1" parent="0"/>
                <mxCell id="2" value="While True" style="rounded=1;whiteSpace=wrap;html=1;" vertex="1" parent="1">
                    <mxGeometry x="140" y="480" width="120" height="60" as="geometry"/>
                </mxCell>
                <mxCell id="4" value="game.handle_battle_input(event)" style="rounded=1;whiteSpace=wrap;html=1;" vertex="1" parent="1">
                    <mxGeometry x="320" y="180" width="225" height="60" as="geometry"/>
                </mxCell>
                <mxCell id="5" value="game.update_battle(dt)" style="rounded=1;whiteSpace=wrap;html=1;" vertex="1" parent="1">
                    <mxGeometry x="320" y="620" width="160" height="60" as="geometry"/>
                </mxCell>
                <mxCell id="6" value="game.draw_battle()" style="rounded=1;whiteSpace=wrap;html=1;" vertex="1" parent="1">
                    <mxGeometry x="320" y="800" width="120" height="60" as="geometry"/>
                </mxCell>
                <mxCell id="7" value="battle_ui.ui_state.selected command" style="rounded=1;whiteSpace=wrap;html=1;" vertex="1" parent="1">
                    <mxGeometry x="370" y="260" width="250" height="60" as="geometry"/>
                </mxCell>
                <mxCell id="8" value="battle_ui.command_menu.items()" style="rounded=1;whiteSpace=wrap;html=1;" vertex="1" parent="1">
                    <mxGeometry x="370" y="330" width="190" height="60" as="geometry"/>
                </mxCell>
                <mxCell id="10" value="battle_ui.setup_command_menu(actor)" style="rounded=1;whiteSpace=wrap;html=1;" vertex="1" parent="1">
                    <mxGeometry x="640" y="300" width="260" height="60" as="geometry"/>
                </mxCell>
                <mxCell id="11" value="battle_ui.handle_input()" style="rounded=1;whiteSpace=wrap;html=1;" vertex="1" parent="1">
                    <mxGeometry x="390" y="440" width="160" height="60" as="geometry"/>
                </mxCell>
                <mxCell id="12" value="battle_ui.execute_selected_action()" style="rounded=1;whiteSpace=wrap;html=1;" vertex="1" parent="1">
                    <mxGeometry x="570" y="440" width="230" height="60" as="geometry"/>
                </mxCell>
                <mxCell id="13" value="report back to battle state" style="rounded=1;whiteSpace=wrap;html=1;" vertex="1" parent="1">
                    <mxGeometry x="820" y="440" width="120" height="60" as="geometry"/>
                </mxCell>
                <mxCell id="14" value="battle.loop(dt)" style="rounded=1;whiteSpace=wrap;html=1;" vertex="1" parent="1">
                    <mxGeometry x="532.5" y="590" width="120" height="60" as="geometry"/>
                </mxCell>
                <mxCell id="15" value="log_messaging" style="rounded=1;whiteSpace=wrap;html=1;" vertex="1" parent="1">
                    <mxGeometry x="520" y="660" width="120" height="60" as="geometry"/>
                </mxCell>
                <mxCell id="16" value="battle_ui.draw(current_actor)" style="rounded=1;whiteSpace=wrap;html=1;" vertex="1" parent="1">
                    <mxGeometry x="500" y="800" width="200" height="60" as="geometry"/>
                </mxCell>
                <mxCell id="17" value="Handles menu navigation depending on state and returns if selected something" style="text;html=1;align=center;verticalAlign=middle;whiteSpace=wrap;rounded=0;" vertex="1" parent="1">
                    <mxGeometry x="385" y="510" width="170" height="30" as="geometry"/>
                </mxCell>
                <mxCell id="19" value="Making empty commands unselectable" style="text;html=1;align=center;verticalAlign=middle;whiteSpace=wrap;rounded=0;" vertex="1" parent="1">
                    <mxGeometry x="690" y="360" width="180" height="30" as="geometry"/>
                </mxCell>
            </root>
        </mxGraphModel>
    </diagram>
</mxfile>